<?xml version="1.0" encoding="UTF-8"?>
<svg width="512pt" height="512pt" viewBox="0 0 512 512" xmlns="http://www.w3.org/2000/svg">
<path fill='#fd642f' d="m507.61 165.06-160.66-160.67c-2.8164-2.8164-6.6289-4.3945-10.609-4.3945h-200.83c-30.418 0-55.168 24.746-55.168 55.168v193.86h-25.168c-30.418 0-55.164 24.75-55.164 55.168v64.27c0 30.418 24.746 55.164 55.164 55.164h25.168v33.199c0 30.422 24.75 55.168 55.168 55.168h321.33c30.422 0 55.168-24.746 55.168-55.168v-281.16c0-3.9805-1.582-7.7969-4.3945-10.605zm-156.27-113.85 109.45 109.45h-84.285c-13.879 0-25.168-11.289-25.168-25.168zm-321.33 317.25v-64.27c0-13.875 11.289-25.168 25.164-25.168h281.17c13.879 0 25.168 11.293 25.168 25.168v64.27c0 13.875-11.289 25.164-25.168 25.164h-281.17c-13.875 0-25.164-11.289-25.164-25.164zm426.83 113.53h-321.33c-13.879 0-25.168-11.289-25.168-25.168v-33.199h226c30.422 0 55.168-24.746 55.168-55.164v-64.27c0-30.418-24.746-55.168-55.168-55.168h-226v-193.86c0-13.879 11.289-25.168 25.168-25.168h185.83v105.5c0 30.418 24.75 55.168 55.168 55.168h105.5v266.16c0 13.879-11.289 25.168-25.168 25.168z"/>
</svg>
