<?xml version="1.0" encoding="UTF-8"?>
<svg width="512pt" height="512pt" version="1.1" viewBox="0 -3 512.00148 512" xmlns="http://www.w3.org/2000/svg">
<path fill='#fd642f' d="m460.34 337.68l35.027-35.031c22.176-22.172 22.18-58.254 0.003906-80.438-6.8047-6.8008-14.977-11.578-23.707-14.227 7.1406-9.6992 11.004-21.375 11.004-33.645 0-15.191-5.918-29.477-16.664-40.219-10.738-10.742-25.023-16.66-40.219-16.66-0.63672 0-1.2734 0.011718-1.9102 0.03125 0.49609-15.184-5.0352-30.535-16.602-42.105-11.566-11.562-26.938-17.102-42.098-16.598 0.019531-0.63281 0.03125-1.2734 0.03125-1.9102 0-15.195-5.918-29.477-16.66-40.219-22.172-22.172-58.254-22.176-80.438 0l-12.109 12.109-12.105-12.105c-10.742-10.746-25.027-16.664-40.223-16.664-15.191 0-29.473 5.918-40.215 16.656-11.57 11.57-17.09 26.926-16.586 42.121-0.64062-0.023438-1.2812-0.046875-1.9219-0.046875-15.191 0-29.477 5.9141-40.227 16.656-11.566 11.574-17.086 26.93-16.582 42.121-0.64453-0.023437-1.2852-0.046874-1.9297-0.046874-15.191 0-29.477 5.918-40.211 16.656-10.746 10.742-16.664 25.027-16.664 40.223 0 12.266 3.8594 23.941 11.004 33.637-8.8594 2.6719-16.98 7.5078-23.711 14.234-22.121 22.129-22.172 58.098-0.14844 80.281 0.054687 0.058593 0.10938 0.11328 0.16406 0.17187l35.078 35.07c0.046875 0.050781 0.097656 0.10156 0.14844 0.15234 2.1055 2.1094 4.3555 4.0195 6.7148 5.75l-10.375 10.375c-10.09 10.09-15.23 23.836-14.469 38.707 0.72656 14.277 6.8711 27.879 17.293 38.301l59.332 59.336c11.008 11.004 25.461 16.508 39.918 16.508 14.457 0 28.914-5.5039 39.918-16.508l27.578-27.582c12.582 2.6992 25.398 4.0703 38.227 4.0703 12.816 0 25.637-1.3633 38.215-4.0625l27.57 27.574c11.008 11.004 25.461 16.508 39.918 16.508 14.453-0.003906 28.914-5.5039 39.918-16.508l59.336-59.336c22.008-22.008 24.508-55.32 5.5703-74.262l-12.637-12.637 6.2344-6.2383c0.070313-0.066406 0.13672-0.13281 0.20703-0.20312zm-275.18-299.31c4.9453-4.9453 11.52-7.668 18.512-7.668 6.9922 0 13.566 2.7227 18.512 7.668l46.98 46.98c10.207 10.211 10.207 26.82 0 37.027-4.9453 4.9453-11.52 7.668-18.508 7.668h-0.003906c-6.9922-0.003907-13.562-2.7227-18.508-7.668-0.007813-0.007812-0.015626-0.015625-0.019532-0.019531l-46.953-46.953c-0.039062-0.039063-0.074219-0.078125-0.11719-0.11328-10.102-10.223-10.066-26.754 0.10547-36.922zm-58.801 95.684c-10.137-10.215-10.113-26.773 0.066407-36.953 4.9492-4.9453 11.527-7.668 18.52-7.668 6.9844 0 13.551 2.7188 18.496 7.6602 0.003907 0 0.007813 0.003906 0.007813 0.007812 0.019531 0.015625 0.035156 0.03125 0.050781 0.046875l46.926 46.926c0.027343 0.03125 0.0625 0.0625 0.09375 0.09375l11.66 11.66c4.9453 4.9453 7.6719 11.52 7.6719 18.516 0 6.9922-2.7227 13.566-7.668 18.508-4.9453 4.9453-11.52 7.668-18.512 7.668-6.9922 0-13.566-2.7227-18.508-7.668-0.0625-0.0625-0.125-0.12109-0.1875-0.17969l-11.512-11.516c-0.015625-0.015625-0.03125-0.03125-0.046875-0.050782l-46.988-46.98-0.003906-0.003906-0.066407-0.066407zm-58.652 21.773c4.9414-4.9414 11.512-7.6641 18.504-7.6641 6.9922 0 13.566 2.7227 18.512 7.668l47.035 47.035c10.156 10.211 10.137 26.781-0.046875 36.973-4.9453 4.9414-11.523 7.6641-18.516 7.6641-6.9922 0-13.566-2.7227-18.508-7.668-0.0625-0.058593-0.12109-0.12109-0.18359-0.17969l-46.652-46.652c-0.050781-0.050781-0.10156-0.10547-0.14844-0.15234-4.9453-4.9453-7.668-11.516-7.668-18.508-0.003906-6.9922 2.7227-13.566 7.6719-18.516zm-29.215 125.28c-0.058594-0.0625-0.11719-0.12109-0.17578-0.17969-10.188-10.207-10.18-26.801 0.019532-37 4.9453-4.9453 11.52-7.668 18.512-7.668 6.9922 0 13.57 2.7227 18.516 7.6719l35.234 35.23c10.207 10.207 10.207 26.816 0.003907 37.023-4.9453 4.9453-11.52 7.668-18.508 7.668h-0.003906c-1.2852 0-2.5547-0.09375-3.8047-0.27344-0.09375-0.019531-0.1875-0.03125-0.28125-0.046875-5.3906-0.83984-10.367-3.332-14.316-7.2344-0.039062-0.042969-0.082031-0.082031-0.12109-0.125zm178.45 149.93c-0.13281-0.035156-0.26172-0.050781-0.39062-0.082031-0.30859-0.074219-0.61328-0.14453-0.92188-0.19922-0.22656-0.039062-0.45312-0.066406-0.68359-0.097656-0.25391-0.03125-0.50781-0.0625-0.76562-0.082031-0.26953-0.023438-0.53906-0.035157-0.80859-0.039063-0.21875-0.007812-0.43359-0.011718-0.65234-0.007812-0.28906 0.003906-0.57422 0.019531-0.85937 0.042968-0.20703 0.015626-0.41406 0.03125-0.62109 0.054688-0.28125 0.03125-0.55859 0.074219-0.83594 0.12109-0.21875 0.035156-0.43359 0.078125-0.65234 0.125-0.25391 0.054687-0.50391 0.11328-0.75391 0.18359-0.23828 0.0625-0.47656 0.13281-0.71484 0.20703-0.22266 0.074219-0.4375 0.15234-0.65625 0.23047-0.25391 0.097656-0.50781 0.19531-0.75391 0.30469-0.19922 0.085937-0.39844 0.17969-0.59375 0.27344-0.25 0.12109-0.49609 0.24609-0.73828 0.38281-0.19922 0.10938-0.39453 0.22656-0.58984 0.34766-0.21875 0.13672-0.44141 0.27344-0.65625 0.42188-0.21875 0.15234-0.43359 0.3125-0.64453 0.47656-0.17578 0.13281-0.34766 0.26562-0.51953 0.40625-0.25 0.21094-0.48828 0.42969-0.72266 0.65625-0.089843 0.085937-0.1875 0.16016-0.27734 0.25l-33.637 33.637c-10.043 10.043-26.379 10.043-36.422 0l-59.332-59.332c-5.0391-5.0391-8.0039-11.488-8.3438-18.164-0.30859-6.082 1.6484-11.562 5.5195-15.43l21.195-21.199c0.32422 0.003906 0.64844 0.023437 0.97656 0.023437h0.003906c15.188 0 29.469-5.918 40.215-16.66 16.441-16.445 20.68-40.531 12.734-60.93 10.672-2.25 20.48-7.5234 28.379-15.414 9.0195-9.0273 14.371-20.359 16.047-32.117 4.5859 1.1758 9.3477 1.7891 14.203 1.7891h0.003907c15.188 0 29.469-5.9141 40.215-16.656 10.742-10.742 16.66-25.027 16.66-40.219 0-4.8477-0.60938-9.6016-1.7773-14.18 12.109-1.7188 23.297-7.2734 32.098-16.082 22.176-22.172 22.176-58.254 0.003906-80.434l-13.172-13.172 12.109-12.105c10.211-10.207 26.82-10.207 37.023-0.003907 4.9453 4.9453 7.668 11.52 7.668 18.512s-2.7227 13.566-7.668 18.512c-2.9961 2.9961-4.4961 6.9258-4.4961 10.855 0 3.9258 1.4961 7.8555 4.4961 10.852 5.9961 5.9961 15.711 5.9961 21.707 0 10.203-10.203 26.812-10.207 37.023 0 10.207 10.211 10.203 26.82-0.003906 37.027-2.9961 2.9961-4.4961 6.9258-4.4961 10.852 0 3.9297 1.4961 7.8555 4.4961 10.852 5.9961 5.9961 15.711 5.9961 21.707 0.003906 4.9453-4.9453 11.523-7.668 18.516-7.6719 6.9922 0 13.566 2.7227 18.508 7.668 4.9492 4.9492 7.6719 11.523 7.6719 18.516 0 6.8984-2.6523 13.391-7.4727 18.309-0.070313 0.070312-0.14062 0.13672-0.20703 0.20703l-22.012 22.016c-5.4805 5.4805-6.0156 14.188-1.2461 20.297l0.78906 1.0117c4.7578 6.0977 13.312 7.6992 19.953 3.7422 10.293-6.1328 23.406-4.4883 31.891 3.9922 10.207 10.211 10.207 26.82 0 37.027l-35.23 35.227c-0.066406 0.070312-0.13672 0.14062-0.20312 0.21094l-75.621 75.621c-37.941 37.941-93.754 52.898-145.66 39.035zm227.88-52.57c6.7305 6.7344 4.1289 21.152-5.5703 30.852l-59.336 59.332c-10.043 10.043-26.379 10.043-36.422 0l-16.328-16.328c21.223-9.0586 40.66-22.133 57.141-38.613l47.875-47.879z"/>
</svg>
