<?xml version="1.0" encoding="UTF-8"?>
<svg width="512pt" height="512pt" viewBox="0 0 512 512" xmlns="http://www.w3.org/2000/svg">
<path  fill='#824fe3' d="m256 0c-107.94 0-195.75 87.812-195.75 195.75 0 37.137 10.449 73.277 30.215 104.52 17.539 27.723 41.691 50.531 70.203 66.453v49.941c0 52.566 42.766 95.332 95.332 95.332h0.003906c25.461 0 49.398-9.918 67.402-27.922 18.008-18.008 27.926-41.945 27.926-67.41v-49.945c28.508-15.922 52.664-38.727 70.203-66.449 19.766-31.246 30.211-67.387 30.211-104.52 0.003906-107.94-87.809-195.75-195.75-195.75zm-65.332 412.36v-39.645h130.66v39.645zm65.328-179.38c-8.2812 0-15 6.7148-15 15v94.742h-50.328v-111.88h130.67l-0.003907 111.88h-50.336v-94.742c0-8.2852-6.7148-15-15-15zm-25.922-50.332h51.848l18.195 18.195h-88.238zm25.926 299.36c-26.91 0-50.062-16.355-60.062-39.645h120.16c-3.2344 7.5625-7.9062 14.52-13.898 20.512-12.34 12.336-28.746 19.133-46.195 19.133zm95.332-150.6v-115.56c0-3.9805-1.5781-7.793-4.3906-10.605l-80.336-80.332c-5.8594-5.8555-15.355-5.8555-21.215 0l-80.328 80.332c-2.8164 2.8125-4.3945 6.6289-4.3945 10.605v115.56c-43.957-30.762-70.418-80.773-70.418-135.65 0-91.395 74.355-165.75 165.75-165.75s165.75 74.355 165.75 165.75c0 54.875-26.461 104.89-70.418 135.65z"/>
<path fill='#824fe3' d="m15 180.75c-3.9492 0-7.8086 1.6016-10.609 4.3906-2.7891 2.7969-4.3906 6.6602-4.3906 10.609s1.6016 7.8086 4.3906 10.609c2.8008 2.7891 6.6602 4.3906 10.609 4.3906s7.8203-1.6016 10.609-4.3906c2.7891-2.8008 4.3906-6.6602 4.3906-10.609s-1.6016-7.8125-4.3906-10.609c-2.8008-2.7891-6.6602-4.3906-10.609-4.3906z"/>
<path fill='#824fe3' d="m507.6 185.14c-2.793-2.7891-6.6523-4.3906-10.602-4.3906s-7.8203 1.6016-10.609 4.3906c-2.7891 2.8008-4.3906 6.6602-4.3906 10.609s1.6016 7.8086 4.3906 10.609c2.7891 2.7891 6.6602 4.3906 10.609 4.3906s7.8086-1.6016 10.602-4.3906c2.7969-2.8008 4.3984-6.6602 4.3984-10.609s-1.6016-7.8125-4.3984-10.609z"/>
<path fill='#824fe3' d="m85.59 40.34c3.9492 0 7.8086-1.6016 10.609-4.3984 2.7891-2.793 4.3906-6.6523 4.3906-10.602 0-3.9492-1.6016-7.8203-4.3906-10.609-2.8008-2.7891-6.6602-4.3906-10.609-4.3906-3.9492 0-7.8203 1.6016-10.609 4.3906-2.7891 2.7891-4.3906 6.6602-4.3906 10.609 0 3.9492 1.6016 7.8086 4.3906 10.602 2.8008 2.7969 6.6602 4.3984 10.609 4.3984z"/>
<path fill='#824fe3' d="m426.41 351.16c-3.9414 0-7.8086 1.6094-10.602 4.3984-2.7969 2.7891-4.3984 6.6602-4.3984 10.602 0 3.9492 1.6016 7.8203 4.3984 10.609 2.793 2.7891 6.6602 4.3906 10.602 4.3906 3.9492 0 7.8203-1.6016 10.609-4.3906 2.7891-2.7891 4.3906-6.6602 4.3906-10.609 0-3.9414-1.6016-7.8125-4.3906-10.602-2.7891-2.7891-6.6602-4.3984-10.609-4.3984z"/>
<path fill='#824fe3' d="m426.41 40.34c3.9414 0 7.8086-1.6016 10.609-4.3984 2.7891-2.793 4.3906-6.6523 4.3906-10.602 0-3.9492-1.6016-7.8203-4.3906-10.609-2.8008-2.7891-6.6602-4.3906-10.609-4.3906-3.9492 0-7.8203 1.6016-10.609 4.3906-2.7891 2.7891-4.3906 6.6602-4.3906 10.609 0 3.9492 1.6016 7.8086 4.3906 10.602 2.8008 2.7969 6.6602 4.3984 10.609 4.3984z"/>
<path fill='#824fe3' d="m85.59 351.16c-3.9492 0-7.8203 1.6094-10.609 4.3984-2.7891 2.7891-4.3906 6.6602-4.3906 10.602 0 3.9492 1.6016 7.8203 4.3906 10.609 2.7891 2.7891 6.6602 4.3906 10.609 4.3906 3.9492 0 7.8086-1.6016 10.602-4.3906 2.7969-2.7891 4.3984-6.6602 4.3984-10.609 0-3.9414-1.6016-7.8125-4.3984-10.602-2.793-2.7891-6.6523-4.3984-10.602-4.3984z"/>
</svg>
