<?xml version="1.0" encoding="UTF-8"?>
<svg enable-background="new 0 0 512.001 512.001" version="1.1" viewBox="0 0 512.001 512.001" xml:space="preserve" xmlns="http://www.w3.org/2000/svg">
		<path fill='#00ab9f' d="m341.95 328.36c-12.131 0-22-8.542-22-19.041 0-10.5 9.869-19.042 22-19.042s22 8.542 22 19.042c0 5.522 4.478 10 10 10s10-4.478 10-10c0-18.325-13.654-33.733-32-37.915v-5.201c0-5.522-4.478-10-10-10s-10 4.478-10 10v5.201c-18.346 4.182-32 19.59-32 37.915 0 21.527 18.841 39.041 42 39.041 12.131 0 22 8.542 22 19.042s-9.869 19.042-22 19.042-22-8.542-22-19.042c0-5.522-4.478-10-10-10s-10 4.478-10 10c0 18.325 13.654 33.733 32 37.915v4.32c0 5.522 4.478 10 10 10s10-4.478 10-10v-4.32c18.346-4.182 32-19.59 32-37.915 0-21.528-18.841-39.042-42-39.042z"/>
		<path fill='#00ab9f' d="m451.48 268.88c-13.063-20.355-31.467-36.643-53.222-47.101-4.979-2.394-10.954-0.298-13.346 4.68-2.393 4.978-0.298 10.952 4.68 13.345 37.911 18.224 62.406 57.163 62.406 99.201 0 17.988-4.434 35.827-12.821 51.591-2.594 4.875-0.745 10.931 4.131 13.525 1.496 0.796 3.104 1.174 4.688 1.174 3.578 0 7.039-1.926 8.837-5.305 9.921-18.644 15.165-39.733 15.165-60.985 0-24.96-7.095-49.209-20.518-70.125z"/>
		<path fill='#00ab9f' d="m357.67 209l-0.673-1e-3c-5.522 0-10 4.477-10 10s4.478 10 10 10l0.579 1e-3h0.048c5.501 0 9.973-4.446 9.999-9.953 0.025-5.523-4.431-10.021-9.953-10.047z"/>
		<path fill='#00ab9f' d="m294.41 438.2c-37.91-18.225-62.405-57.164-62.405-99.201 0-17.988 4.434-35.827 12.821-51.591 2.594-4.875 0.745-10.931-4.131-13.525-4.874-2.594-10.932-0.745-13.525 4.131-9.921 18.645-15.165 39.733-15.165 60.985 0 24.96 7.095 49.208 20.518 70.125 13.063 20.355 31.467 36.643 53.222 47.102 1.397 0.672 2.873 0.989 4.326 0.989 3.724 0 7.298-2.089 9.02-5.669 2.391-4.978 0.297-10.953-4.681-13.346z"/>
		<path fill='#00ab9f' d="m327 449l-0.579-2e-3c-5.548-0.01-10.02 4.429-10.045 9.953-0.026 5.523 4.432 10.021 9.954 10.047l0.67 2e-3c5.522 0 10-4.478 10-10s-4.478-10-10-10z"/>
		<path fill='#00ab9f' d="m387.41 175.17c-1.217-2.9-2.708-5.633-4.443-8.168h26.034c25.364 0 46-20.636 46-46s-20.636-46-46-46h-80.08c5.091-7.402 8.08-16.357 8.08-26 0-25.364-20.636-46-46-46h-245c-25.364 0-46 20.636-46 46s20.636 46 46 46h80.08c-5.091 7.402-8.08 16.357-8.08 26s2.988 18.598 8.08 26h-26.08c-25.364 0-46 20.636-46 46 0 14.567 6.814 27.566 17.415 36-10.601 8.434-17.415 21.433-17.415 36s6.814 27.566 17.415 36c-10.601 8.434-17.415 21.433-17.415 36s6.814 27.566 17.415 36c-10.601 8.434-17.415 21.433-17.415 36 0 25.364 20.636 46 46 46h117.85c31.046 33.207 75.212 54.001 124.15 54.001 93.738 0 170-76.262 170-170 0-78.017-52.83-143.92-124.59-163.83zm21.591-80.168c14.337 0 26 11.664 26 26s-11.663 26-26 26h-245c-14.337 0-26-11.664-26-26s11.663-26 26-26h245zm-363-20c-14.337 0-26-11.664-26-26s11.663-26 26-26h245c14.337 0 26 11.664 26 26s-11.663 26-26 26h-245zm54 92h245c4.028 0 7.885 0.936 11.345 2.612-4.73-0.397-9.512-0.611-14.344-0.611-46.945 0-89.505 19.129-120.3 49.999h-121.7c-14.336 0-26-11.664-26-26s11.664-26 26-26zm0 72h104.62c-11.352 15.553-20.129 33.095-25.703 52h-78.912c-14.337 0-26-11.663-26-26 0-14.336 11.663-26 26-26zm0 72h74.32c-1.517 9.113-2.319 18.464-2.319 28.001 0 8.146 0.589 16.156 1.702 23.999h-73.703c-14.337 0-26-11.663-26-26s11.663-26 26-26zm0 124c-14.337 0-26-11.663-26-26s11.663-26 26-26h77.786c5.046 18.813 13.243 36.346 23.993 52h-101.78zm242 54.001c-82.71 0-150-67.29-150-150s67.29-150 150-150 150 67.29 150 150-67.29 150-150 150z"/>
</svg>
