<svg xmlns="http://www.w3.org/2000/svg" xmlns:xlink="http://www.w3.org/1999/xlink"><symbol id="icon-facebook" viewBox="0 0 470.513 470.513">
	<path fill="#ffffff" d="m271.52 154.17v-40.541c0-6.086 0.28-10.8 0.849-14.13 0.567-3.335 1.857-6.615 3.859-9.853 1.999-3.236 5.236-5.47 9.706-6.708 4.476-1.24 10.424-1.858 17.85-1.858h40.539v-81.08h-64.809c-37.5 0-64.433 8.897-80.803 26.691-16.368 17.798-24.551 44.014-24.551 78.658v48.82h-48.542v81.086h48.539v235.26h97.362v-235.26h64.805l8.566-81.086h-73.37z"/>
</symbol><symbol id="icon-telegram" viewBox="0 0 300 300">
	<path fill="#ffffff" d="m5.299 144.64l69.126 25.8 26.756 86.047c1.712 5.511 8.451 7.548 12.924 3.891l38.532-31.412c4.039-3.291 9.792-3.455 14.013-0.391l69.498 50.457c4.785 3.478 11.564 0.856 12.764-4.926l50.911-244.89c1.31-6.316-4.896-11.585-10.91-9.259l-283.7 109.44c-7.001 2.7-6.94 12.612 0.081 15.243zm91.57 12.066l135.1-83.207c2.428-1.491 4.926 1.792 2.841 3.726l-111.5 103.64c-3.919 3.648-6.447 8.53-7.163 13.829l-3.798 28.146c-0.503 3.758-5.782 4.131-6.819 0.494l-14.607-51.325c-1.673-5.854 0.765-12.107 5.943-15.303z"/>
</symbol><symbol id="icon-title1" viewBox="0 0 24 24">
<path d="M0 0h24v24H0z" fill="none"/>
<path d="M12 8c-2.21 0-4 1.79-4 4s1.79 4 4 4 4-1.79 4-4-1.79-4-4-4zm8.94 3c-.46-4.17-3.77-7.48-7.94-7.94V1h-2v2.06C6.83 3.52 3.52 6.83 3.06 11H1v2h2.06c.46 4.17 3.77 7.48 7.94 7.94V23h2v-2.06c4.17-.46 7.48-3.77 7.94-7.94H23v-2h-2.06zM12 19c-3.87 0-7-3.13-7-7s3.13-7 7-7 7 3.13 7 7-3.13 7-7 7z"/>
</symbol><symbol id="icon-title2" viewBox="0 0 24 24">
<path d="M13 13v8h8v-8h-8zM3 21h8v-8H3v8zM3 3v8h8V3H3zm13.66-1.31L11 7.34 16.66 13l5.66-5.66-5.66-5.65z"/>
<path d="M0 0h24v24H0z" fill="none"/>
</symbol><symbol id="icon-title3" viewBox="0 0 24 24">
<path d="M11 9.16V2c-5 .5-9 4.79-9 10s4 9.5 9 10v-7.16c-1-.41-2-1.52-2-2.84s1-2.43 2-2.84zM14.86 11H22c-.48-4.75-4-8.53-9-9v7.16c1 .3 1.52.98 1.86 1.84zM13 14.84V22c5-.47 8.52-4.25 9-9h-7.14c-.34.86-.86 1.54-1.86 1.84z"/>
<path d="M0 0h24v24H0z" fill="none"/>
</symbol><symbol id="icon-youtube" viewBox="0 0 512 512">
		<path fill="#ffffff" d="m490.24 113.92c-13.888-24.704-28.96-29.248-59.648-30.976-30.656-2.08-107.74-2.944-174.53-2.944-66.912 0-144.03 0.864-174.66 2.912-30.624 1.76-45.728 6.272-59.744 31.008-14.304 24.672-21.664 67.168-21.664 141.98v0.256c0 74.496 7.36 117.31 21.664 141.73 14.016 24.704 29.088 29.184 59.712 31.264 30.656 1.792 107.78 2.848 174.69 2.848 66.784 0 143.87-1.056 174.56-2.816 30.688-2.08 45.76-6.56 59.648-31.264 14.432-24.416 21.728-67.232 21.728-141.73v-0.256c0-74.848-7.296-117.34-21.76-142.02zm-298.24 238.08v-192l160 96-160 96z"/>
</symbol></svg>